<svg id="eD8COu3pMXr1" xmlns="http://www.w3.org/2000/svg" xmlns:xlink="http://www.w3.org/1999/xlink" viewBox="0 0 300 300" shape-rendering="geometricPrecision" text-rendering="geometricPrecision" project-id="82b5ed3135204021b9166f94164965e1" export-id="4fc40f762d3549b08b072f2cebcc87cf" cached="false"><defs><filter id="eD8COu3pMXr5-filter" x="-150%" y="-150%" width="400%" height="400%"><feComponentTransfer id="eD8COu3pMXr5-filter-opacity-0" result="result"><feFuncA id="eD8COu3pMXr5-filter-opacity-0-A" type="table" tableValues="0 1"/></feComponentTransfer></filter><filter id="eD8COu3pMXr6-filter" x="-150%" y="-150%" width="400%" height="400%"><feComponentTransfer id="eD8COu3pMXr6-filter-opacity-0" result="result"><feFuncA id="eD8COu3pMXr6-filter-opacity-0-A" type="table" tableValues="0 1"/></feComponentTransfer></filter><filter id="eD8COu3pMXr7-filter" x="-150%" y="-150%" width="400%" height="400%"><feComponentTransfer id="eD8COu3pMXr7-filter-opacity-0" result="result"><feFuncA id="eD8COu3pMXr7-filter-opacity-0-A" type="table" tableValues="0 1"/></feComponentTransfer></filter><filter id="eD8COu3pMXr8-filter" x="-150%" y="-150%" width="400%" height="400%"><feComponentTransfer id="eD8COu3pMXr8-filter-opacity-0" result="result"><feFuncA id="eD8COu3pMXr8-filter-opacity-0-A" type="table" tableValues="0 1"/></feComponentTransfer></filter><filter id="eD8COu3pMXr9-filter" x="-150%" y="-150%" width="400%" height="400%"><feComponentTransfer id="eD8COu3pMXr9-filter-opacity-0" result="result"><feFuncA id="eD8COu3pMXr9-filter-opacity-0-A" type="table" tableValues="0 1"/></feComponentTransfer></filter></defs><ellipse rx="92.516658" ry="100.717581" transform="matrix(1.62133 0 0 1.489313 150 150)" fill="#07510f" stroke-width="0"/><rect width="30.240902" height="96.360841" rx="4" ry="4" transform="matrix(0 1.523533-1.004487 0 200.150444 197.434098)" fill="#ffe0bd" stroke-width="0"/><rect width="30.240902" height="96.360841" rx="4" ry="4" transform="matrix(0 1.523533-1.551526 0 229.150027 103.926988)" fill="#ffe0bd" stroke-width="0"/><rect width="30.240902" height="96.360841" rx="8" ry="8" transform="matrix(.728815 0 0 1 180.753436 0.000008)" filter="url(#eD8COu3pMXr5-filter)" fill="#f1fa03" stroke-width="0"/><rect width="30.240902" height="96.360841" rx="8" ry="8" transform="matrix(.728815 0 0 1 220.586237 0.000008)" filter="url(#eD8COu3pMXr6-filter)" fill="#f1fa03" stroke-width="0"/><rect width="30.240902" height="96.360841" rx="8" ry="8" transform="matrix(.728815 0 0 1 61.840055-.000003)" filter="url(#eD8COu3pMXr7-filter)" fill="#f1fa03" stroke-width="0"/><rect width="30.240902" height="96.360841" rx="8" ry="8" transform="matrix(.728815 0 0 1 61.840055 66.453032)" filter="url(#eD8COu3pMXr8-filter)" fill="#f1fa03" stroke-width="0"/><rect width="30.240902" height="96.360841" rx="8" ry="8" transform="matrix(.728815 0 0 1 220.586237 66.453042)" filter="url(#eD8COu3pMXr9-filter)" fill="#f1fa03" stroke-width="0"/><rect width="30.240902" height="96.360841" rx="8" ry="8" transform="matrix(.728815 0 0 1 103.357231 0)" fill="#f1fa03" stroke-width="0"/><rect width="30.240902" height="96.360841" rx="8" ry="8" transform="matrix(.728815 0 0 0.670214 103.357231 150)" fill="#f1fa03" stroke-width="0"/><rect width="30.240902" height="96.360841" rx="8" ry="8" transform="matrix(.728815 0 0 0.670214 180.753436 150)" fill="#f1fa03" stroke-width="0"/><rect width="30.240902" height="96.360841" rx="8" ry="8" transform="matrix(0 0.847457-1.861701 0 241.235129 83.546917)" fill="#f1fa03" stroke-width="0"/><rect width="30.240902" height="96.360841" rx="8" ry="8" transform="matrix(0 0.847457-1.004487 0 202.793458 188.954521)" fill="#f1fa03" stroke-width="0"/><rect width="30.240902" height="96.360841" rx="8" ry="8" transform="matrix(0 0.847457-1.861701 0 241.235129 137.186031)" fill="#f1fa03" stroke-width="0"/></svg>
